<svg width="20" height="20" viewBox="0 0 20 20" fill="none" xmlns="http://www.w3.org/2000/svg">
<path d="M11.4353 7.44879L5.13533 13.6363C4.97755 13.7914 4.7652 13.8782 4.544 13.8782C4.32281 13.8782 4.11046 13.7914 3.95267 13.6363L1.25268 10.9848C1.17359 10.9072 1.11058 10.8147 1.06723 10.7127C1.02388 10.6107 1.00105 10.5011 1.00004 10.3903C0.997991 10.1665 1.08495 9.95097 1.24178 9.79125C1.31943 9.71217 1.4119 9.64915 1.51391 9.6058C1.61592 9.56245 1.72546 9.53962 1.8363 9.53861C2.06013 9.53657 2.27561 9.62352 2.43533 9.78035L4.5447 11.8518L10.2534 6.24504C10.413 6.08821 10.6284 6.00122 10.8522 6.00319C11.0759 6.00517 11.2898 6.09596 11.4466 6.25559C11.6034 6.41522 11.6904 6.63061 11.6884 6.85437C11.6865 7.07814 11.595 7.29196 11.4353 7.44879ZM18.1959 6.25348C18.1182 6.17412 18.0256 6.11089 17.9234 6.06739C17.8212 6.0239 17.7115 6.00101 17.6004 6.00003C17.4894 5.99905 17.3792 6.02 17.2763 6.06168C17.1733 6.10337 17.0797 6.16496 17.0006 6.24293L11.294 11.8518L10.7399 11.3076C10.5803 11.1507 10.3649 11.0637 10.1412 11.0657C9.91738 11.0677 9.70357 11.1585 9.54674 11.3181C9.38991 11.4778 9.30291 11.6932 9.30489 11.9169C9.30687 12.1407 9.39766 12.3545 9.55728 12.5113L10.7027 13.6363C10.8605 13.7914 11.0728 13.8782 11.294 13.8782C11.5152 13.8782 11.7276 13.7914 11.8853 13.6363L18.1853 7.44879C18.2644 7.37114 18.3274 7.27868 18.3707 7.17669C18.414 7.0747 18.4368 6.96517 18.4377 6.85437C18.4387 6.74357 18.4179 6.63367 18.3764 6.53093C18.3349 6.42819 18.2735 6.33463 18.1959 6.25559V6.25348Z" fill="white" fill-opacity="0.2"/>
</svg>
