<svg width="25" height="25" viewBox="0 0 25 25" fill="none" xmlns="http://www.w3.org/2000/svg">
<path fill-rule="evenodd" clip-rule="evenodd" d="M3.21678 14.6098L3.30509 14.5214C3.62059 14.2059 4.13637 14.2063 4.45154 14.5214L10.6989 20.7688C11.0144 21.0843 11.0144 21.5998 10.6989 21.9153L10.6106 22.0036C10.2951 22.3191 9.77933 22.3188 9.46415 22.0036L3.21678 15.7562C2.90128 15.4407 2.90128 14.9253 3.21678 14.6098Z" fill="#141414"/>
<path fill-rule="evenodd" clip-rule="evenodd" d="M2.95506 17.189L3.04403 17.1001C3.35888 16.7852 3.87466 16.7855 4.18983 17.1007L8.11935 21.0302C8.43453 21.3454 8.43485 21.8612 8.12 22.176L8.03103 22.265C7.71619 22.5799 7.19976 22.5802 6.88458 22.265L2.95506 18.3355C2.63989 18.0203 2.63956 17.5045 2.95506 17.189Z" fill="#141414"/>
<path fill-rule="evenodd" clip-rule="evenodd" d="M3.33105 20.3421L3.96206 19.7111L5.50938 21.2584L4.87837 21.8894L3.33105 20.3421Z" fill="#141414"/>
<path fill-rule="evenodd" clip-rule="evenodd" d="M9.09424 14.579L14.5389 9.13431L16.0862 10.6816L10.6416 16.1263L9.09424 14.579Z" fill="#141414"/>
<path fill-rule="evenodd" clip-rule="evenodd" d="M5.41232 12.414L4.63719 13.1891C4.32169 13.5046 4.32202 14.0204 4.63719 14.3356L10.8846 20.5829C11.2001 20.8984 11.7155 20.8984 12.031 20.5829L12.8061 19.8078C13.1217 19.4923 13.1213 18.9765 12.8062 18.6613L6.55878 12.414C6.24327 12.0985 5.72783 12.0985 5.41232 12.414Z" fill="#141414"/>
<path fill-rule="evenodd" clip-rule="evenodd" d="M20.3017 3.37155L19.6714 4.00189L21.2187 5.54921L21.849 4.91886L20.3017 3.37155Z" fill="#141414"/>
<path fill-rule="evenodd" clip-rule="evenodd" d="M14.5694 3.25687L14.4805 3.34584C14.1649 3.66134 14.1653 4.17712 14.4805 4.49229L20.7278 10.7397C21.0433 11.0552 21.5594 11.0545 21.8743 10.7397L21.9632 10.6507C22.2781 10.3358 22.2784 9.81942 21.9632 9.50424L15.7159 3.25687C15.4007 2.94104 14.8843 2.94202 14.5694 3.25687Z" fill="#141414"/>
<path fill-rule="evenodd" clip-rule="evenodd" d="M12.3735 5.45284L13.1493 4.67704C13.4642 4.36219 13.9806 4.36187 14.2958 4.67704L20.5431 10.9244C20.8586 11.2399 20.858 11.756 20.5431 12.0709L19.7673 12.8467C19.4525 13.1615 18.9361 13.1618 18.6209 12.8467L12.3735 6.59929C12.058 6.28378 12.0587 5.76768 12.3735 5.45284Z" fill="#141414"/>
<path fill-rule="evenodd" clip-rule="evenodd" d="M17.1482 2.99596L17.0596 3.08461C16.7441 3.40011 16.7444 3.91589 17.0596 4.23106L20.9891 8.16058C21.3042 8.47576 21.82 8.47608 22.1355 8.16058L22.2242 8.07193C22.5397 7.75643 22.5394 7.24066 22.2242 6.92548L18.2947 2.99596C17.9795 2.68079 17.4637 2.68046 17.1482 2.99596Z" fill="#141414"/>
</svg>
