<svg width="19" height="22" viewBox="0 0 19 22" fill="none" xmlns="http://www.w3.org/2000/svg">
<path d="M11.2278 2.6158C11.3068 1.33098 10.341 0.224631 9.07049 0.144697C7.80003 0.0647639 6.70604 1.04152 6.627 2.32634C6.54796 3.61116 7.5138 4.71751 8.78426 4.79744C10.0547 4.87738 11.1487 3.90062 11.2278 2.6158Z" fill="#141414"/>
<path d="M4.68734 6.19946C4.70673 6.21907 6.0586 7.56661 6.41596 7.9252V11.556L10.4882 12.5141L11.3553 11.7521V8.00925C11.3747 7.98404 13.1448 6.21908 13.1698 6.19667L17.4858 1.83189C17.8099 1.50411 17.8099 0.97462 17.4858 0.649643C17.1616 0.321864 16.6381 0.321864 16.3167 0.649643L12.0007 5.01442C12.0007 5.01442 11.7015 5.31139 11.358 5.65597V5.63636C11.358 5.63636 11.3442 5.63636 11.3359 5.63356L11.358 5.57753H7.03926C6.85089 5.57753 6.66528 5.60274 6.48799 5.64196C6.15002 5.30578 5.87023 5.02563 5.86192 5.01723L1.54591 0.652443C1.22179 0.324664 0.698222 0.324664 0.376876 0.652443C0.0527601 0.980221 0.0527601 1.50971 0.376876 1.83469L4.69288 6.19946H4.68734Z" fill="#141414"/>
<path d="M13.3165 13.0099V22H9.83152V14.7048L11.0504 14.9905L13.3165 13.0099ZM16.167 13.1107L16.2723 10.4241L14.7487 11.7548V21.9972H18.2336V11.2281L16.167 13.1079V13.1107ZM1.26045 17.6212L1.24383 17.638C1.03883 17.8257 0.772892 17.9265 0.49587 17.9265C0.321346 17.9265 0.152362 17.8845 0 17.8089V22H3.48494V15.2875L1.26045 17.6212ZM5.09998 13.5926L4.91714 13.7831V22H8.40208V14.3686L5.09998 13.5926ZM14.9897 6.76806L13.6766 7.96431L16.469 8.14921L10.6709 13.2368L4.6512 11.822L0.188375 16.4501C8.25591e-08 16.6238 -0.0166199 16.918 0.155134 17.1113C0.246551 17.215 0.371211 17.2654 0.498641 17.2654C0.60945 17.2654 0.720257 17.2262 0.808904 17.1449L4.88944 12.8642L10.8814 14.2706L16.9925 8.92523L16.8873 11.5699L18.2004 10.3736L18.3333 6.98938L14.9924 6.76526L14.9897 6.76806Z" fill="#141414"/>
</svg>
