<svg width="24" height="17" viewBox="0 0 24 17" fill="none" xmlns="http://www.w3.org/2000/svg">
<path d="M0.97073 0.00707245C-0.407356 0.0457001 -14.8064 0.255363 -22.4964 -10.476C-27.9294 -18.0734 -26.6931 -26.4654 -26.2904 -29.2131C-23.6193 -48.0053 -2.8743 -57.4235 0.244827 -58.8525C9.53414 -63.0954 17.6155 -63.4982 27.0693 -63.9616C35.5987 -64.3809 45.7216 -64.7506 57.2397 -60.2705C64.1698 -57.567 72.7843 -54.2014 77.3552 -45.3735C78.1492 -43.8507 82.2721 -35.4919 78.9602 -26.0626C76.5216 -19.1824 71.4175 -15.4472 67.5952 -12.7602C55.7879 -4.41787 40.4078 -4.64961 38.145 -4.6772C32.9908 -4.81852 22.8329 -3.08818 22.8329 -3.08818C22.8329 -3.08818 15.9425 -0.60535 15.0975 0.99469C13.3962 4.25548 15.6646 8.44869 16.4076 10.0763C18.6193 14.744 22.3282 16.2724 21.9482 16.8793C21.4152 17.7455 13.7421 15.6048 7.80445 10.0763C4.80495 7.24014 2.47345 3.80475 0.97073 0.00707245Z" fill="white"/>
</svg>
