<svg width="19" height="29" viewBox="0 0 19 29" fill="none" xmlns="http://www.w3.org/2000/svg">
<path d="M16.297 2.05205H13.229V1.26927C13.229 0.749705 12.8077 0.328796 12.2885 0.328796L6.61818 0.328796C6.09902 0.328796 5.67811 0.749705 5.67811 1.26927V2.05205H2.61005C1.32792 2.05205 0.285156 3.09482 0.285156 4.37735L0.285156 26.3709C0.285156 27.6526 1.32792 28.6958 2.61005 28.6958H16.297C17.5792 28.6958 18.6219 27.6526 18.6219 26.3709V4.37735C18.6219 3.09482 17.5792 2.05205 16.297 2.05205ZM17.6063 26.4404C17.6063 27.1561 17.024 27.7383 16.3084 27.7383H2.59874C1.88307 27.7383 1.30083 27.1561 1.30083 26.4404L1.30083 4.30741C1.30083 3.59174 1.88307 3.00951 2.59874 3.00951L16.3084 3.00951C17.024 3.00951 17.6063 3.59174 17.6063 4.30741V26.4404Z" fill="#CC2629"/>
<path d="M6.39598 17.5243L12.8606 10.7752L12.8479 10.7761V10.7752L9.58967 10.8925C9.50656 10.8962 9.44925 10.8062 9.48491 10.7261L11.7368 5.7247L11.7109 5.75562L11.7253 5.7247L9.21436 8.79064V8.80482L6.55028 12.0555C6.4875 12.133 6.54131 12.2506 6.63927 12.2488L8.83941 12.1914C8.92679 12.1892 8.98235 12.2871 8.93996 12.3656L6.21821 17.3846C6.15514 17.5032 6.30447 17.6217 6.39598 17.5243Z" fill="#CC2629"/>
<path d="M16.3151 21.3186L2.5918 21.3186L2.5918 26.1706L16.3151 26.1706V21.3186Z" fill="#CC2629"/>
</svg>
