<svg width="18" height="18" viewBox="0 0 18 18" fill="none" xmlns="http://www.w3.org/2000/svg">
<path fill-rule="evenodd" clip-rule="evenodd" d="M0.899902 4.48637C0.899902 2.50562 2.58671 0.899902 4.6675 0.899902H13.3323C15.4131 0.899902 17.0999 2.50562 17.0999 4.48637V13.5134C17.0999 15.4942 15.4131 17.0999 13.3323 17.0999H4.6675C2.58672 17.0999 0.899902 15.4942 0.899902 13.5134V4.48637ZM5.10543 8.99951C5.10543 6.93482 6.86374 5.26105 9.03271 5.26105C11.2017 5.26105 12.96 6.93482 12.96 8.99951V9.22005C12.96 11.2847 11.2017 12.9585 9.03271 12.9585C6.86374 12.9585 5.10543 11.2847 5.10543 9.22005V8.99951ZM13.5974 3.23656C13.0099 3.23656 12.5337 3.68987 12.5337 4.24906C12.5337 4.80825 13.0099 5.26156 13.5974 5.26156C14.1848 5.26156 14.661 4.80825 14.661 4.24906C14.661 3.68987 14.1848 3.23656 13.5974 3.23656Z" fill="#0D0D0D"/>
<path d="M6.59766 8.99987C6.59766 7.73697 7.67315 6.71319 8.99984 6.71319C10.3265 6.71319 11.402 7.73697 11.402 8.99987C11.402 10.2628 10.3265 11.2866 8.99984 11.2866C7.67315 11.2866 6.59766 10.2628 6.59766 8.99987Z" fill="#0D0D0D"/>
</svg>
