<svg width="24" height="24" viewBox="0 0 24 24" fill="none" xmlns="http://www.w3.org/2000/svg">
<path d="M11 9C11 8.73478 11.1054 8.48043 11.2929 8.29289C11.4804 8.10536 11.7348 8 12 8C12.2652 8 12.5196 8.10536 12.7071 8.29289C12.8946 8.48043 13 8.73478 13 9C13 9.26522 12.8946 9.51957 12.7071 9.70711C12.5196 9.89464 12.2652 10 12 10C11.7348 10 11.4804 9.89464 11.2929 9.70711C11.1054 9.51957 11 9.26522 11 9Z" fill="white"/>
<path fill-rule="evenodd" clip-rule="evenodd" d="M9.89564 3.05101C10.1466 2.73324 10.4663 2.47644 10.8307 2.29989C11.1951 2.12333 11.5947 2.03162 11.9996 2.03162C12.4046 2.03162 12.8042 2.12333 13.1686 2.29989C13.533 2.47644 13.8527 2.73324 14.1036 3.05101C14.2506 3.23701 14.4836 3.33301 14.7186 3.30601C15.1208 3.2587 15.5284 3.30309 15.9109 3.43585C16.2935 3.56861 16.641 3.7863 16.9273 4.07257C17.2137 4.35884 17.4315 4.70626 17.5644 5.08874C17.6973 5.47123 17.7418 5.87885 17.6946 6.28101C17.6808 6.39668 17.6969 6.51397 17.7414 6.62164C17.7859 6.72932 17.8572 6.82378 17.9486 6.89601C18.2664 7.14696 18.5232 7.46664 18.6998 7.83104C18.8763 8.19544 18.968 8.59509 18.968 9.00001C18.968 9.40492 18.8763 9.80458 18.6998 10.169C18.5232 10.5334 18.2664 10.8531 17.9486 11.104C17.8573 11.1763 17.786 11.2708 17.7416 11.3784C17.6971 11.4861 17.6809 11.6033 17.6946 11.719C17.742 12.1212 17.6976 12.529 17.5648 12.9116C17.4319 13.2942 17.2142 13.6418 16.9278 13.9281C16.6414 14.2145 16.2938 14.4323 15.9112 14.5651C15.5286 14.6979 15.1209 14.7423 14.7186 14.695C14.603 14.6812 14.4857 14.6973 14.378 14.7418C14.2703 14.7863 14.1759 14.8576 14.1036 14.949C13.8526 15.2666 13.5329 15.5233 13.1685 15.6997C12.8041 15.8761 12.4045 15.9678 11.9996 15.9678C11.5948 15.9678 11.1952 15.8761 10.8308 15.6997C10.4664 15.5233 10.1467 15.2666 9.89564 14.949C9.82362 14.8576 9.72936 14.7861 9.62187 14.7415C9.51438 14.6968 9.39725 14.6805 9.28164 14.694C8.8795 14.7413 8.47186 14.6969 8.08933 14.5642C7.7068 14.4314 7.35931 14.2137 7.07295 13.9274C6.78658 13.6412 6.56878 13.2938 6.43589 12.9113C6.30299 12.5288 6.25846 12.1212 6.30564 11.719C6.31933 11.6032 6.30307 11.4859 6.25842 11.3782C6.21377 11.2705 6.14223 11.1761 6.05064 11.104C5.73287 10.8531 5.47607 10.5334 5.29952 10.169C5.12297 9.80458 5.03125 9.40492 5.03125 9.00001C5.03125 8.59509 5.12297 8.19544 5.29952 7.83104C5.47607 7.46664 5.73287 7.14696 6.05064 6.89601C6.14223 6.82389 6.21377 6.72947 6.25842 6.62179C6.30307 6.51411 6.31933 6.39677 6.30564 6.28101C6.25846 5.87885 6.30299 5.47123 6.43589 5.08874C6.56878 4.70626 6.78658 4.35884 7.07295 4.07257C7.35931 3.7863 7.7068 3.56861 8.08933 3.43585C8.47186 3.30309 8.8795 3.2587 9.28164 3.30601C9.39725 3.31952 9.51438 3.30317 9.62187 3.25853C9.72936 3.21389 9.82362 3.14244 9.89564 3.05101ZM11.9996 6.00001C11.204 6.00001 10.4409 6.31608 9.87832 6.87869C9.31571 7.4413 8.99964 8.20436 8.99964 9.00001C8.99964 9.79566 9.31571 10.5587 9.87832 11.1213C10.4409 11.6839 11.204 12 11.9996 12C12.7953 12 13.5584 11.6839 14.121 11.1213C14.6836 10.5587 14.9996 9.79566 14.9996 9.00001C14.9996 8.20436 14.6836 7.4413 14.121 6.87869C13.5584 6.31608 12.7953 6.00001 11.9996 6.00001Z" fill="white"/>
<path d="M5.39457 15.0551L4.06957 19.0001C4.01042 19.1763 4.00155 19.3655 4.04395 19.5464C4.08636 19.7274 4.17836 19.893 4.30963 20.0246C4.44091 20.1561 4.60626 20.2485 4.78713 20.2914C4.96799 20.3342 5.15722 20.3258 5.33357 20.2671L7.28357 19.6171L8.42757 21.3241C8.53098 21.4777 8.67502 21.5996 8.84364 21.6762C9.01225 21.7527 9.19882 21.781 9.38255 21.7578C9.56628 21.7345 9.73995 21.6607 9.88421 21.5446C10.0285 21.4285 10.1376 21.2746 10.1996 21.1001L11.3196 17.9201C10.3772 17.7849 9.49915 17.3631 8.80457 16.7121C8.15178 16.6901 7.51088 16.5313 6.92331 16.2461C6.33574 15.9608 5.81459 15.5554 5.39357 15.0561L5.39457 15.0551ZM12.6636 17.9221L13.7836 21.0991C13.8454 21.2738 13.9546 21.428 14.0989 21.5443C14.2432 21.6606 14.4171 21.7345 14.601 21.7577C14.7849 21.781 14.9717 21.7526 15.1404 21.6759C15.3091 21.5991 15.4532 21.477 15.5566 21.3231L16.7006 19.6161L18.6506 20.2661C18.8268 20.3247 19.0159 20.3331 19.1966 20.2902C19.3774 20.2474 19.5426 20.1552 19.6738 20.0237C19.8051 19.8923 19.8971 19.7269 19.9396 19.5461C19.9821 19.3653 19.9735 19.1762 19.9146 19.0001L18.5946 15.0701C18.1735 15.5655 17.6535 15.9675 17.068 16.2502C16.4825 16.533 15.8444 16.6903 15.1946 16.7121C14.4961 17.3665 13.6125 17.7891 12.6646 17.9221H12.6636Z" fill="white"/>
</svg>
